<svg version="1.2" xmlns="http://www.w3.org/2000/svg" viewBox="0 0 128 128" width="128" height="128"><style>.a{fill:#58f287}</style><path fill-rule="evenodd" class="a" d="m47.1 33.4c-3.6 2.5-6.6 6.7-8.9 12.7-4.8 12.5-5.3 30.5 3.3 48.5l-16.4 7.8c-10.5-22-10.4-44.6-4.2-61.8 0.3-4-1.5-6.2-3.5-7.4-2.7-1.5-5.3-1-6.6 0.1l-11.8-13.8c10-8.5 24.8-6.5 33.3 2.6q2-1.9 4.4-3.6c7.8-5.4 17.6-7.5 29.3-6.1 12.3 1.5 21.4 8.8 27.4 17.8 4 6 6.8 13 8.6 20.1 11 1.8 20.6 8 26.8 16.2l-14.5 11c-2.4-3.2-5.8-6-9.7-7.7 0.2 7.7-0.6 15.2-2.3 21.7-2.3 8.5-7 18.2-16.4 21.7-7.2 2.6-14.4 2.2-20.5-1-6-3.1-10.1-8.6-12.1-14.8-4.1-12.7 0.9-28 15.7-38.5 4.8-3.5 9.7-5.8 14.5-7.3-1.4-4.2-3.1-8.1-5.2-11.3-3.9-5.8-8.7-9.1-14.5-9.8-8.2-1-13.3 0.6-16.7 2.9zm39.3 36.4q-3.4 1.4-6.9 3.9c-9.4 6.7-10.2 14.2-8.9 18.2 0.7 2.2 1.9 3.5 3.2 4.2 1.2 0.6 3.1 1 5.8 0 0.6-0.2 3.2-2.1 5.1-9.3 1.3-4.8 1.9-10.7 1.7-17z"/></svg>